<svg width="96" height="96" xmlns="http://www.w3.org/2000/svg" xmlns:xlink="http://www.w3.org/1999/xlink" xml:space="preserve" overflow="hidden"><defs><clipPath id="clip0"><rect x="62" y="317" width="96" height="96"/></clipPath></defs><g clip-path="url(#clip0)" transform="translate(-62 -317)"><path d="M68.567 368.958 75.056 375.446 80 370.764 80 402.976 105 402.986 105 378.017 115 378.017 115 402.99 140 403 140 370.722 144.969 375.422 151.433 368.959 110 329.6ZM138 401 117 400.991 117 376.017 103 376.017 103 400.985 82 400.977 82 368.87 110 342.354 138 368.831ZM75.094 372.656 71.433 369 110 332.356 148.567 369 144.93 372.632 110 339.6Z" stroke="#06D6A0" stroke-width="4" fill="#06D6A0"/></g></svg>