<svg width="96" height="96" xmlns="http://www.w3.org/2000/svg" xmlns:xlink="http://www.w3.org/1999/xlink" xml:space="preserve" overflow="hidden"><defs><clipPath id="clip0"><rect x="239" y="283" width="96" height="96"/></clipPath></defs><g clip-path="url(#clip0)" transform="translate(-239 -283)"><path d="M245.567 334.958 252.056 341.446 257 336.764 257 368.976 282 368.986 282 344.017 292 344.017 292 368.99 317 369 317 336.722 321.969 341.422 328.433 334.959 287 295.6ZM315 367 294 366.991 294 342.017 280 342.017 280 366.985 259 366.977 259 334.87 287 308.354 315 334.831ZM252.094 338.656 248.433 335 287 298.356 325.567 335 321.93 338.632 287 305.6Z" stroke="#FFFFFF" fill="#FFFFFF"/></g></svg>