<svg width="96" height="96" xmlns="http://www.w3.org/2000/svg" xmlns:xlink="http://www.w3.org/1999/xlink" xml:space="preserve" overflow="hidden"><defs><clipPath id="clip0"><rect x="370" y="283" width="96" height="96"/></clipPath></defs><g clip-path="url(#clip0)" transform="translate(-370 -283)"><path d="M418 299C425.732 299 432 305.268 432 313 432 320.732 425.732 327 418 327 410.268 327 404 320.732 404 313 404.008 305.271 410.271 299.008 418 299M418 297C409.163 297 402 304.163 402 313 402 321.837 409.163 329 418 329 426.837 329 434 321.837 434 313 434 304.163 426.837 297 418 297Z" stroke="#FFFFFF" fill="#FFFFFF"/><path d="M450 365 448 365 448 349.5C447.952 347.376 446.952 345.386 445.275 344.081 440.889 340.716 435.868 338.273 430.513 336.9 426.459 335.652 422.242 335.012 418 335 413.759 335.074 409.548 335.713 405.476 336.9 400.177 338.452 395.178 340.886 390.688 344.1 389.028 345.406 388.042 347.388 388 349.5L388 365 386 365 386 349.5C386.05 346.769 387.326 344.205 389.476 342.519 394.168 339.151 399.395 336.601 404.937 334.977 409.184 333.74 413.577 333.075 418 333 422.432 333.011 426.838 333.678 431.075 334.979 436.685 336.424 441.943 338.991 446.533 342.525 448.678 344.211 449.952 346.772 450 349.5Z" stroke="#FFFFFF" fill="#FFFFFF"/></g></svg>