<svg width="96" height="96" xmlns="http://www.w3.org/2000/svg" xmlns:xlink="http://www.w3.org/1999/xlink" xml:space="preserve" overflow="hidden"><defs><clipPath id="clip0"><rect x="608" y="69" width="96" height="96"/></clipPath></defs><g clip-path="url(#clip0)" transform="translate(-608 -69)"><path d="M672 99C672 107.837 664.837 115 656 115 647.163 115 640 107.837 640 99 640 90.1634 647.163 83 656 83 664.837 83 672 90.1634 672 99Z" stroke="#FFFFFF" fill="#FFFFFF"/><path d="M688 151 688 135C688 132.6 686.8 130.2 684.8 128.6 680.4 125 674.8 122.6 669.2 121 665.2 119.8 660.8 119 656 119 651.6 119 647.2 119.8 642.8 121 637.2 122.6 631.6 125.4 627.2 128.6 625.2 130.2 624 132.6 624 135L624 151 688 151Z" stroke="#FFFFFF" fill="#FFFFFF"/></g></svg>