<svg width="96" height="96" xmlns="http://www.w3.org/2000/svg" xmlns:xlink="http://www.w3.org/1999/xlink" xml:space="preserve" overflow="hidden"><defs><clipPath id="clip0"><rect x="88" y="29" width="96" height="96"/></clipPath></defs><g clip-path="url(#clip0)" transform="translate(-88 -29)"><path d="M136 45C143.732 45 150 51.268 150 59 150 66.732 143.732 73 136 73 128.268 73 122 66.732 122 59 122.008 51.2712 128.271 45.0077 136 45M136 43C127.163 43 120 50.1634 120 59 120 67.8366 127.163 75 136 75 144.837 75 152 67.8366 152 59 152 50.1634 144.837 43 136 43Z" stroke="#06D6A0" stroke-width="4" fill="#06D6A0"/><path d="M168 111 166 111 166 95.5C165.952 93.3759 164.952 91.3859 163.275 90.081 158.889 86.7158 153.868 84.2731 148.513 82.9 144.459 81.6524 140.242 81.0121 136 81 131.759 81.0736 127.548 81.7126 123.476 82.9 118.177 84.452 113.178 86.8861 108.688 90.1 107.028 91.4064 106.042 93.3882 106 95.5L106 111 104 111 104 95.5C104.05 92.7686 105.326 90.2047 107.476 88.519 112.167 85.1512 117.395 82.6012 122.937 80.977 127.184 79.7396 131.577 79.0747 136 79 140.432 79.0109 144.838 79.6778 149.075 80.979 154.685 82.4244 159.943 84.9913 164.533 88.525 166.678 90.2106 167.952 92.772 168 95.5Z" stroke="#06D6A0" stroke-width="4" fill="#06D6A0"/></g></svg>