<svg width="96" height="96" xmlns="http://www.w3.org/2000/svg" xmlns:xlink="http://www.w3.org/1999/xlink" xml:space="preserve" overflow="hidden"><defs><clipPath id="clip0"><rect x="745" y="71" width="96" height="96"/></clipPath></defs><g clip-path="url(#clip0)" transform="translate(-745 -71)"><path d="M805 98C805 106.837 797.837 114 789 114 780.163 114 773 106.837 773 98 773 89.1634 780.163 82 789 82 797.837 82 805 89.1634 805 98Z" stroke="#FFFFFF" fill="#FFFFFF"/><path d="M795 142C795.017 132.713 801.739 124.797 810.9 123.276 808.1 121.935 805.189 120.839 802.2 120 797.922 118.69 793.474 118.016 789 118 784.531 118.077 780.092 118.75 775.8 120 770.207 121.632 764.932 124.202 760.2 127.6 758.227 129.145 757.052 131.495 757 134L757 150 796.79 150C795.614 147.497 795.003 144.766 795 142Z" stroke="#FFFFFF" fill="#FFFFFF"/><path d="M814 127C805.716 127 799 133.716 799 142 799 150.284 805.716 157 814 157 822.284 157 829 150.284 829 142 829 133.716 822.284 127 814 127ZM821 143 815.5 143 815.5 148.5 812.5 148.5 812.5 143 807 143 807 140 812.5 140 812.5 134.5 815.5 134.5 815.5 140 821 140Z" stroke="#FFFFFF" fill="#FFFFFF"/></g></svg>