<svg width="96" height="96" xmlns="http://www.w3.org/2000/svg" xmlns:xlink="http://www.w3.org/1999/xlink" xml:space="preserve" overflow="hidden"><defs><clipPath id="clip0"><rect x="372" y="119" width="96" height="96"/></clipPath></defs><g clip-path="url(#clip0)" transform="translate(-372 -119)"><path d="M416 162C424.837 162 432 154.837 432 146 432 137.163 424.837 130 416 130 407.163 130 400 137.163 400 146 400 154.837 407.163 162 416 162ZM416 132C423.732 132 430 138.268 430 146 430 153.732 423.732 160 416 160 408.268 160 402 153.732 402 146 402.008 138.271 408.271 132.008 416 132Z" stroke="#FFFFFF" fill="#FFFFFF"/><path d="M436.105 172.694C437.166 172.391 438.253 172.186 439.352 172.083 436.087 170.344 432.641 168.969 429.075 167.983 424.838 166.681 420.432 166.012 416 166 411.577 166.075 407.184 166.739 402.937 167.976 397.395 169.6 392.168 172.15 387.476 175.518 385.326 177.204 384.049 179.768 384 182.5L384 198 386 198 386 182.5C386.044 180.391 387.031 178.413 388.688 177.109 393.177 173.895 398.177 171.461 403.476 169.909 407.547 168.719 411.759 168.077 416 168 420.242 168.012 424.459 168.653 428.513 169.9 431.113 170.632 433.651 171.566 436.105 172.694Z" stroke="#FFFFFF" fill="#FFFFFF"/><path d="M441 175C432.716 175 426 181.716 426 190 426 198.284 432.716 205 441 205 449.284 205 456 198.284 456 190 455.991 181.72 449.28 175.009 441 175ZM441 203C433.82 203 428 197.18 428 190 428 182.82 433.82 177 441 177 448.18 177 454 182.82 454 190 453.992 197.176 448.176 202.992 441 203Z" stroke="#FFFFFF" fill="#FFFFFF"/><path d="M442 183 440 183 440 189 434 189 434 191 440 191 440 197 442 197 442 191 448 191 448 189 442 189 442 183Z" stroke="#FFFFFF" fill="#FFFFFF"/></g></svg>