<svg width="96" height="96" xmlns="http://www.w3.org/2000/svg" xmlns:xlink="http://www.w3.org/1999/xlink" xml:space="preserve" overflow="hidden"><defs><clipPath id="clip0"><rect x="276" y="38" width="96" height="96"/></clipPath></defs><g clip-path="url(#clip0)" transform="translate(-276 -38)"><path d="M320 81C328.837 81 336 73.8366 336 65 336 56.1634 328.837 49 320 49 311.163 49 304 56.1634 304 65 304 73.8366 311.163 81 320 81ZM320 51C327.732 51 334 57.268 334 65 334 72.732 327.732 79 320 79 312.268 79 306 72.732 306 65 306.008 57.2712 312.271 51.0077 320 51Z" stroke="#06D6A0" stroke-width="4" fill="#06D6A0"/><path d="M340.105 91.694C341.166 91.3905 342.253 91.186 343.352 91.083 340.087 89.3439 336.641 87.9689 333.075 86.983 328.838 85.6807 324.432 85.0125 320 85 315.577 85.0747 311.184 85.7392 306.937 86.976 301.395 88.6002 296.168 91.1502 291.476 94.518 289.326 96.2038 288.049 98.7682 288 101.5L288 117 290 117 290 101.5C290.044 99.3914 291.031 97.4134 292.688 96.109 297.177 92.8947 302.177 90.4606 307.476 88.909 311.547 87.7188 315.759 87.0768 320 87 324.242 87.0124 328.459 87.6527 332.513 88.9 335.113 89.6321 337.651 90.5663 340.105 91.694Z" stroke="#06D6A0" stroke-width="4" fill="#06D6A0"/><path d="M345 94C336.716 94 330 100.716 330 109 330 117.284 336.716 124 345 124 353.284 124 360 117.284 360 109 359.991 100.72 353.28 94.0094 345 94ZM345 122C337.82 122 332 116.18 332 109 332 101.82 337.82 96 345 96 352.18 96 358 101.82 358 109 357.992 116.176 352.176 121.992 345 122Z" stroke="#06D6A0" stroke-width="4" fill="#06D6A0"/><path d="M346 102 344 102 344 108 338 108 338 110 344 110 344 116 346 116 346 110 352 110 352 108 346 108 346 102Z" stroke="#06D6A0" stroke-width="4" fill="#06D6A0"/></g></svg>