<svg width="96" height="96" xmlns="http://www.w3.org/2000/svg" xmlns:xlink="http://www.w3.org/1999/xlink" xml:space="preserve" overflow="hidden"><defs><clipPath id="clip0"><rect x="652" y="331" width="96" height="96"/></clipPath></defs><g clip-path="url(#clip0)" transform="translate(-652 -331)"><path d="M688.253 422 661.938 411.1 661.938 345.999 688.253 335.099 688.253 422Z" stroke="#FFFFFF" fill="#FFFFFF"/><path d="M703.006 362.92 709.006 357.795 709.006 345.366 692.253 345.366 692.253 351.366 703.006 351.366 703.006 362.92Z" stroke="#FFFFFF" fill="#FFFFFF"/><path d="M703.006 391.811 703.006 405.366 692.253 405.366 692.253 411.366 709.006 411.366 709.006 396.936 703.006 391.811Z" stroke="#FFFFFF" fill="#FFFFFF"/><path d="M716.253 356.866 716.253 369.366 738.006 369.366 738.006 385.366 716.253 385.366 716.253 397.866 692.253 377.366 716.253 356.866Z" stroke="#FFFFFF" fill="#FFFFFF"/></g></svg>