<svg width="96" height="96" xmlns="http://www.w3.org/2000/svg" xmlns:xlink="http://www.w3.org/1999/xlink" xml:space="preserve" overflow="hidden"><defs><clipPath id="clip0"><rect x="509" y="119" width="96" height="96"/></clipPath></defs><g clip-path="url(#clip0)" transform="translate(-509 -119)"><path d="M521 199.122 547.316 210.022 547.316 123.1 521 134ZM523 135.339 545.316 126.094 545.316 207.032 523 197.786Z" stroke="#FFFFFF" fill="#FFFFFF"/><path d="M564.062 150.453 566.062 148.453 566.062 135 551.062 135 551.062 137 564.062 137 564.062 150.453Z" stroke="#FFFFFF" fill="#FFFFFF"/><path d="M564.062 195 551.062 195 551.062 197 566.062 197 566.062 183.547 564.062 181.547 564.062 195Z" stroke="#FFFFFF" fill="#FFFFFF"/><path d="M572.707 151.707 571.293 150.293 555.586 166 571.293 181.707 572.707 180.293 559.431 167.017C559.427 167.013 559.427 167.007 559.431 167.003 559.433 167.001 559.435 167 559.438 167L593 167 593 165 559.438 165C559.432 165 559.428 164.995 559.428 164.99 559.428 164.987 559.429 164.985 559.431 164.983Z" stroke="#FFFFFF" fill="#FFFFFF"/></g></svg>