<svg width="96" height="96" xmlns="http://www.w3.org/2000/svg" xmlns:xlink="http://www.w3.org/1999/xlink" xml:space="preserve" overflow="hidden"><defs><clipPath id="clip0"><rect x="110" y="193" width="96" height="96"/></clipPath></defs><g clip-path="url(#clip0)" transform="translate(-110 -193)"><path d="M122 273.122 148.316 284.022 148.316 197.1 122 208ZM124 209.339 146.316 200.094 146.316 281.032 124 271.786Z" stroke="#06D6A0" stroke-width="4" fill="#06D6A0"/><path d="M165.062 224.453 167.062 222.453 167.062 209 152.062 209 152.062 211 165.062 211 165.062 224.453Z" stroke="#06D6A0" stroke-width="4" fill="#06D6A0"/><path d="M165.062 269 152.062 269 152.062 271 167.062 271 167.062 257.547 165.062 255.547 165.062 269Z" stroke="#06D6A0" stroke-width="4" fill="#06D6A0"/><path d="M173.707 225.707 172.293 224.293 156.586 240 172.293 255.707 173.707 254.293 160.431 241.017C160.427 241.013 160.427 241.007 160.431 241.003 160.433 241.001 160.435 241 160.438 241L194 241 194 239 160.438 239C160.432 239 160.428 238.995 160.428 238.99 160.428 238.987 160.429 238.985 160.431 238.983Z" stroke="#06D6A0" stroke-width="4" fill="#06D6A0"/></g></svg>