<svg width="96" height="96" xmlns="http://www.w3.org/2000/svg" xmlns:xlink="http://www.w3.org/1999/xlink" xml:space="preserve" overflow="hidden"><defs><clipPath id="clip0"><rect x="679" y="558" width="96" height="96"/></clipPath></defs><g clip-path="url(#clip0)" transform="translate(-679 -558)"><path d="M715.315 649 689 638.1 689 572.999 715.315 562.099 715.315 649Z" stroke="#FFFFFF" fill="#FFFFFF"/><path d="M742.068 583.866 742.068 596.366 719.315 596.366 719.315 612.366 742.068 612.366 742.068 624.866 766.068 604.366 742.068 583.866Z" stroke="#FFFFFF" fill="#FFFFFF"/><path d="M730.068 592.366 736.068 592.366 736.068 572.366 719.315 572.366 719.315 578.366 730.068 578.366 730.068 592.366Z" stroke="#FFFFFF" fill="#FFFFFF"/><path d="M730.068 616.366 730.068 632.366 719.315 632.366 719.315 638.366 736.068 638.366 736.068 616.366 730.068 616.366Z" stroke="#FFFFFF" fill="#FFFFFF"/></g></svg>