<svg width="96" height="96" xmlns="http://www.w3.org/2000/svg" xmlns:xlink="http://www.w3.org/1999/xlink" xml:space="preserve" overflow="hidden"><defs><clipPath id="clip0"><rect x="509" y="283" width="96" height="96"/></clipPath></defs><g clip-path="url(#clip0)" transform="translate(-509 -283)"><path d="M520.938 363.122 547.255 374.022 547.255 287.1 520.938 298ZM522.938 299.339 545.255 290.094 545.255 371.032 522.938 361.786Z" stroke="#FFFFFF" fill="#FFFFFF"/><path d="M564 324 566 324 566 299 551 299 551 301 564 301 564 324Z" stroke="#FFFFFF" fill="#FFFFFF"/><path d="M564 359 551 359 551 361 566 361 566 336 564 336 564 359Z" stroke="#FFFFFF" fill="#FFFFFF"/><path d="M577.707 314.293 576.293 315.707 589.569 328.983C589.573 328.987 589.573 328.993 589.569 328.997 589.567 328.999 589.565 329 589.562 329L556 329 556 331 589.562 331C589.568 331 589.572 331.005 589.572 331.01 589.572 331.013 589.571 331.015 589.569 331.017L576.293 344.293 577.707 345.707 593.414 330Z" stroke="#FFFFFF" fill="#FFFFFF"/></g></svg>