<svg width="96" height="96" xmlns="http://www.w3.org/2000/svg" xmlns:xlink="http://www.w3.org/1999/xlink" xml:space="preserve" overflow="hidden"><defs><clipPath id="clip0"><rect x="311" y="164" width="96" height="96"/></clipPath></defs><g clip-path="url(#clip0)" transform="translate(-311 -164)"><path d="M322.938 244.122 349.255 255.022 349.255 168.1 322.938 179ZM324.938 180.339 347.255 171.094 347.255 252.032 324.938 242.786Z" stroke="#06D6A0" stroke-width="4" fill="#06D6A0"/><path d="M366 205 368 205 368 180 353 180 353 182 366 182 366 205Z" stroke="#06D6A0" stroke-width="4" fill="#06D6A0"/><path d="M366 240 353 240 353 242 368 242 368 217 366 217 366 240Z" stroke="#06D6A0" stroke-width="4" fill="#06D6A0"/><path d="M379.707 195.293 378.293 196.707 391.569 209.983C391.573 209.987 391.573 209.993 391.569 209.997 391.567 209.999 391.565 210 391.562 210L358 210 358 212 391.562 212C391.568 212 391.572 212.005 391.572 212.01 391.572 212.013 391.571 212.015 391.569 212.017L378.293 225.293 379.707 226.707 395.414 211Z" stroke="#06D6A0" stroke-width="4" fill="#06D6A0"/></g></svg>