<svg width="96" height="96" xmlns="http://www.w3.org/2000/svg" xmlns:xlink="http://www.w3.org/1999/xlink" xml:space="preserve" overflow="hidden"><defs><clipPath id="clip0"><rect x="812" y="412" width="96" height="96"/></clipPath></defs><g clip-path="url(#clip0)" transform="translate(-812 -412)"><path d="M854 439 870 439 870 436C870 433.8 868.2 432 866 432L824 432C821.8 432 820 433.8 820 436L820 463C820 465.2 821.8 467 824 467L830 467 830 477 840 467 846 467 846 447C846 442.6 849.6 439 854 439Z" stroke="#FFFFFF" fill="#FFFFFF"/><path d="M896 443 854 443C851.8 443 850 444.8 850 447L850 474C850 476.2 851.8 478 854 478L880 478 890 488 890 478 896 478C898.2 478 900 476.2 900 474L900 447C900 444.8 898.2 443 896 443Z" stroke="#FFFFFF" fill="#FFFFFF"/></g></svg>