<svg width="96" height="96" xmlns="http://www.w3.org/2000/svg" xmlns:xlink="http://www.w3.org/1999/xlink" xml:space="preserve" overflow="hidden"><defs><clipPath id="clip0"><rect x="1041" y="599" width="96" height="96"/></clipPath></defs><g clip-path="url(#clip0)" transform="translate(-1041 -599)"><path d="M1083 626 1099 626 1099 623C1099 620.8 1097.2 619 1095 619L1053 619C1050.8 619 1049 620.8 1049 623L1049 650C1049 652.2 1050.8 654 1053 654L1059 654 1059 664 1069 654 1075 654 1075 634C1075 629.6 1078.6 626 1083 626Z" stroke="#06D6A0" fill="#06D6A0"/><path d="M1125 630 1083 630C1080.8 630 1079 631.8 1079 634L1079 661C1079 663.2 1080.8 665 1083 665L1109 665 1119 675 1119 665 1125 665C1127.2 665 1129 663.2 1129 661L1129 634C1129 631.8 1127.2 630 1125 630Z" stroke="#06D6A0" fill="#06D6A0"/></g></svg>