<svg width="96" height="96" xmlns="http://www.w3.org/2000/svg" xmlns:xlink="http://www.w3.org/1999/xlink" xml:space="preserve" overflow="hidden"><defs><clipPath id="clip0"><rect x="96" y="443" width="96" height="96"/></clipPath></defs><g clip-path="url(#clip0)" transform="translate(-96 -443)"><path d="M185.707 449.293C185.316 448.903 184.684 448.903 184.293 449.293L149.017 484.569C149.013 484.573 149.007 484.573 149.003 484.569 149.001 484.567 149 484.565 149 484.562L149 466C149 465.448 148.552 465 148 465 147.448 465 147 465.448 147 466L147 487C147 487.552 147.448 488 148 488L169 488C169.552 488 170 487.552 170 487 170 486.448 169.552 486 169 486L150.438 486C150.432 486 150.428 485.995 150.428 485.99 150.428 485.987 150.429 485.985 150.431 485.983L185.707 450.707C186.097 450.316 186.097 449.684 185.707 449.293Z" stroke="#06D6A0" stroke-width="4" fill="#06D6A0"/><path d="M140.382 494.077C140.261 494.027 140.131 494.001 140 494L119 494C118.448 494 118 494.448 118 495 118 495.552 118.448 496 119 496L137.562 496C137.568 496 137.572 496.005 137.572 496.01 137.572 496.013 137.571 496.015 137.569 496.017L102.293 531.293C101.896 531.677 101.885 532.31 102.268 532.707 102.652 533.104 103.285 533.115 103.682 532.732 103.691 532.724 103.699 532.715 103.707 532.707L138.983 497.431C138.987 497.427 138.993 497.427 138.997 497.431 138.999 497.433 139 497.435 139 497.438L139 516C139 516.552 139.448 517 140 517 140.552 517 141 516.552 141 516L141 495C140.999 494.596 140.756 494.231 140.382 494.077Z" stroke="#06D6A0" stroke-width="4" fill="#06D6A0"/></g></svg>