<svg width="96" height="96" xmlns="http://www.w3.org/2000/svg" xmlns:xlink="http://www.w3.org/1999/xlink" xml:space="preserve" overflow="hidden"><defs><clipPath id="clip0"><rect x="909" y="217" width="96" height="96"/></clipPath></defs><g clip-path="url(#clip0)" transform="translate(-909 -217)"><path d="M997 222 977.2 222C975.543 222 974.2 223.343 974.2 225 974.2 226.657 975.543 228 977.2 228L989.76 228 920 297.76 920 285.2C920 283.543 918.657 282.2 917 282.2 915.343 282.2 914 283.543 914 285.2L914 305C914 306.657 915.343 308 917 308L936.8 308C938.457 308 939.8 306.657 939.8 305 939.8 303.343 938.457 302 936.8 302L924.24 302 994 232.24 994 244.8C994 246.457 995.343 247.8 997 247.8 998.657 247.8 1000 246.457 1000 244.8L1000 225C1000 223.343 998.657 222 997 222Z" stroke="#FFFFFF" fill="#FFFFFF"/></g></svg>