<svg width="96" height="96" xmlns="http://www.w3.org/2000/svg" xmlns:xlink="http://www.w3.org/1999/xlink" xml:space="preserve" overflow="hidden"><defs><clipPath id="clip0"><rect x="966" y="331" width="96" height="96"/></clipPath></defs><g clip-path="url(#clip0)" transform="translate(-966 -331)"><path d="M1056.1 341.14C1057.23 339.928 1057.16 338.03 1055.95 336.9 1054.8 335.826 1053.01 335.826 1051.86 336.9L1021 367.76 1021 355.2C1021 353.543 1019.66 352.2 1018 352.2 1016.34 352.2 1015 353.543 1015 355.2L1015 375C1015 376.657 1016.34 378 1018 378L1037.8 378C1038.6 377.999 1039.36 377.683 1039.92 377.12 1040.54 376.579 1040.93 375.819 1041 375 1040.91 373.304 1039.5 371.982 1037.8 372L1025.24 372Z" stroke="#FFFFFF" fill="#FFFFFF"/><path d="M971.88 416.88C970.75 418.092 970.818 419.991 972.03 421.12 973.182 422.194 974.968 422.194 976.12 421.12L1007 390.26 1007 402.82C1007 404.477 1008.34 405.82 1010 405.82 1011.66 405.82 1013 404.477 1013 402.82L1013 383C1013 381.343 1011.66 380 1010 380L990.18 380C989.382 380.006 988.619 380.33 988.06 380.9 986.825 381.902 986.636 383.716 987.639 384.951 988.253 385.709 989.21 386.103 990.18 386L1002.74 386Z" stroke="#FFFFFF" fill="#FFFFFF"/></g></svg>