<svg width="96" height="96" xmlns="http://www.w3.org/2000/svg" xmlns:xlink="http://www.w3.org/1999/xlink" xml:space="preserve" overflow="hidden"><defs><clipPath id="clip0"><rect x="172" y="466" width="96" height="96"/></clipPath></defs><g clip-path="url(#clip0)" transform="translate(-172 -466)"><path d="M180 555 201 555C201.552 555 202 554.552 202 554 202 553.448 201.552 553 201 553L182.438 553C182.432 553 182.428 552.995 182.428 552.99 182.428 552.987 182.429 552.985 182.431 552.983L258.983 476.431C258.987 476.427 258.993 476.427 258.997 476.431 258.999 476.433 259 476.435 259 476.438L259 495C259 495.552 259.448 496 260 496 260.552 496 261 495.552 261 495L261 474C261 473.448 260.552 473 260 473L239 473C238.448 473 238 473.448 238 474 238 474.552 238.448 475 239 475L257.562 475C257.568 475 257.572 475.005 257.572 475.01 257.572 475.013 257.571 475.015 257.569 475.017L181.017 551.569C181.013 551.573 181.007 551.573 181.003 551.569 181.001 551.567 181 551.565 181 551.562L181 533C181 532.448 180.552 532 180 532 179.448 532 179 532.448 179 533L179 554C179 554.552 179.448 555 180 555Z" stroke="#06D6A0" stroke-width="4" fill="#06D6A0"/></g></svg>